<svg width="12" height="9" viewBox="0 0 12 9" fill="none" xmlns="http://www.w3.org/2000/svg">
<path d="M11.9275 4.19583C10.7977 1.99146 8.56105 0.5 6 0.5C3.43895 0.5 1.20166 1.9925 0.0724887 4.19604C0.0248307 4.29031 0 4.39447 0 4.5001C0 4.60574 0.0248307 4.70989 0.0724887 4.80417C1.20228 7.00854 3.43895 8.5 6 8.5C8.56105 8.5 10.7983 7.0075 11.9275 4.80396C11.9752 4.70969 12 4.60553 12 4.4999C12 4.39426 11.9752 4.29011 11.9275 4.19583ZM6 7.5C5.40665 7.5 4.82663 7.32405 4.33329 6.99441C3.83994 6.66476 3.45542 6.19623 3.22836 5.64805C3.00129 5.09987 2.94188 4.49667 3.05764 3.91473C3.17339 3.33279 3.45912 2.79824 3.87868 2.37868C4.29823 1.95912 4.83278 1.6734 5.41473 1.55764C5.99667 1.44189 6.59987 1.5013 7.14805 1.72836C7.69623 1.95542 8.16477 2.33994 8.49441 2.83329C8.82406 3.32664 9.00001 3.90666 9.00001 4.5C9.0002 4.89402 8.92273 5.28421 8.77203 5.64828C8.62134 6.01234 8.40037 6.34313 8.12175 6.62175C7.84314 6.90036 7.51234 7.12133 7.14828 7.27203C6.78422 7.42273 6.39402 7.50019 6 7.5ZM6 2.5C5.82149 2.50249 5.64412 2.52905 5.47271 2.57896C5.614 2.77097 5.68181 3.00727 5.66382 3.24499C5.64584 3.48271 5.54326 3.70611 5.37469 3.87469C5.20611 4.04326 4.98271 4.14584 4.74499 4.16383C4.50727 4.18181 4.27097 4.114 4.07895 3.97271C3.96961 4.37554 3.98935 4.80252 4.13539 5.19354C4.28143 5.58457 4.54641 5.91995 4.89304 6.15249C5.23967 6.38503 5.6505 6.50301 6.0677 6.48983C6.4849 6.47665 6.88746 6.33298 7.21873 6.07902C7.54999 5.82507 7.79328 5.47363 7.91434 5.07416C8.03541 4.6747 8.02816 4.24733 7.89361 3.8522C7.75906 3.45708 7.50399 3.11409 7.1643 2.87152C6.82461 2.62895 6.41741 2.49902 6 2.5Z" fill="#B1B1B1"/>
</svg>
