<svg width="17" height="17" viewBox="0 0 17 17" fill="none" xmlns="http://www.w3.org/2000/svg">
<path d="M8.51559 1.38196e-05C10.7869 0.00409245 12.8491 0.899128 14.3716 2.35413L15.5958 1.13003C16.114 0.611842 17 0.97885 17 1.7117V6.30646C17 6.76076 16.6317 7.12904 16.1774 7.12904H11.5827C10.8498 7.12904 10.4828 6.24302 11.001 5.72479L12.4319 4.29385C11.3741 3.30336 10.0053 2.7547 8.55107 2.74215C5.3842 2.7148 2.71476 5.27765 2.74214 8.54963C2.76812 11.6535 5.28453 14.2581 8.5 14.2581C9.90959 14.2581 11.2418 13.755 12.2917 12.8338C12.4543 12.6912 12.6998 12.6998 12.8527 12.8527L14.2121 14.2121C14.3791 14.3791 14.3708 14.6513 14.1956 14.8096C12.6884 16.171 10.691 17 8.5 17C3.8056 17 3.42744e-05 13.1944 2.30239e-10 8.50008C-3.4274e-05 3.81106 3.82658 -0.00838335 8.51559 1.38196e-05Z" fill="black"/>
</svg>
