<svg width="8" height="13" viewBox="0 0 8 13" fill="none" xmlns="http://www.w3.org/2000/svg">
<path d="M3.58892 12.7377C0.561875 7.38946 0 6.84056 0 4.875C0 2.1826 1.79085 0 4 0C6.20915 0 8 2.1826 8 4.875C8 6.84056 7.43813 7.38946 4.41108 12.7377C4.21244 13.0874 3.78754 13.0874 3.58892 12.7377ZM4 6.90625C4.92048 6.90625 5.66667 5.99683 5.66667 4.875C5.66667 3.75317 4.92048 2.84375 4 2.84375C3.07952 2.84375 2.33333 3.75317 2.33333 4.875C2.33333 5.99683 3.07952 6.90625 4 6.90625Z" fill="#B1B1B1"/>
</svg>
