<svg width="25" height="25" viewBox="0 0 25 25" fill="none" xmlns="http://www.w3.org/2000/svg">
<g clip-path="url(#clip0_1_1168)">
<path d="M17.6557 15.4016L14.2749 12.0208L17.6557 8.63992C18.0706 8.22506 18.0706 7.55218 17.6557 7.13732L16.9044 6.38602C16.4896 5.97116 15.8167 5.97116 15.4018 6.38602L12.021 9.76687L8.64013 6.38602C8.22527 5.97116 7.55238 5.97116 7.13752 6.38602L6.38622 7.13732C5.97136 7.55218 5.97136 8.22506 6.38622 8.63992L9.76708 12.0208L6.38622 15.4016C5.97136 15.8165 5.97136 16.4894 6.38622 16.9042L7.13752 17.6555C7.55238 18.0704 8.22527 18.0704 8.64013 17.6555L12.021 14.2747L15.4018 17.6555C15.8167 18.0704 16.4896 18.0704 16.9044 17.6555L17.6557 16.9042C18.0706 16.4894 18.0706 15.8165 17.6557 15.4016Z" fill="white"/>
</g>
<defs>
<clipPath id="clip0_1_1168">
<rect width="17" height="17" fill="white" transform="translate(12.021) rotate(45)"/>
</clipPath>
</defs>
</svg>
