<svg width="16" height="17" viewBox="0 0 16 17" fill="none" xmlns="http://www.w3.org/2000/svg">
<path d="M15.3899 14.6976L12.4503 11.3876C12.3176 11.2382 12.1377 11.1552 11.949 11.1552H11.4684C12.2822 9.9832 12.7658 8.50913 12.7658 6.90558C12.7658 3.09091 10.0207 0 6.63289 0C3.24506 0 0.5 3.09091 0.5 6.90558C0.5 10.7202 3.24506 13.8112 6.63289 13.8112C8.05701 13.8112 9.36615 13.2667 10.407 12.3504V12.8915C10.407 13.104 10.4807 13.3065 10.6134 13.4559L13.553 16.7659C13.8302 17.078 14.2784 17.078 14.5526 16.7659L15.387 15.8264C15.6642 15.5143 15.6642 15.0097 15.3899 14.6976ZM6.63289 11.1552C4.54829 11.1552 2.8588 9.25613 2.8588 6.90558C2.8588 4.55834 4.54535 2.65599 6.63289 2.65599C8.71748 2.65599 10.407 4.55502 10.407 6.90558C10.407 9.25281 8.72043 11.1552 6.63289 11.1552Z" fill="#DDDDDD"/>
</svg>
