<svg width="12" height="18" viewBox="0 0 12 18" fill="none" xmlns="http://www.w3.org/2000/svg">
<path d="M9.42857 11.25C8.823 11.25 8.26642 11.5249 7.82705 11.9846L5.08189 9.73269C5.16319 9.25005 5.16319 8.74992 5.08189 8.26727L7.82705 6.01538C8.26642 6.47511 8.823 6.75 9.42857 6.75C10.8487 6.75 12 5.23895 12 3.375C12 1.51105 10.8487 0 9.42857 0C8.00842 0 6.85714 1.51105 6.85714 3.375C6.85714 3.62665 6.8783 3.87176 6.91811 4.10769L4.17295 6.35959C3.73358 5.89989 3.177 5.625 2.57143 5.625C1.15128 5.625 0 7.13605 0 9C0 10.8639 1.15128 12.375 2.57143 12.375C3.177 12.375 3.73358 12.1001 4.17295 11.6404L6.91811 13.8923C6.87753 14.1329 6.85709 14.3786 6.85714 14.625C6.85714 16.4889 8.00842 18 9.42857 18C10.8487 18 12 16.4889 12 14.625C12 12.7611 10.8487 11.25 9.42857 11.25Z" fill="white"/>
</svg>
